<?xml version="1.0" encoding="UTF-8"?>
<svg xmlns="http://www.w3.org/2000/svg" xmlns:xlink="http://www.w3.org/1999/xlink" xmlns:svgjs="http://svgjs.com/svgjs" version="1.1" width="512" height="512" x="0" y="0" viewBox="0 0 435 435.50007" style="enable-background:new 0 0 512 512" xml:space="preserve" class="">
  <g>
    <path xmlns="http://www.w3.org/2000/svg" d="m254.652344 266.601562c.628906 8.777344 7.285156 15.9375 16 17.199219v117.097657l-270.402344.5c-.1992188-95.699219 71.101562-166 159.199219-166.097657 34.003906-.222656 67.160156 10.585938 94.5 30.800781.203125.097657.402343.296876.703125.5zm0 0" fill="#e7218d" data-original="#e48e66" style="" class=""/>
    <path xmlns="http://www.w3.org/2000/svg" d="m159.550781 0c52.851563 0 95.699219 42.847656 95.699219 95.699219 0 52.855469-42.847656 95.699219-95.699219 95.699219-52.855469 0-95.699219-42.84375-95.699219-95.699219-.015624-25.386719 10.0625-49.734375 28.011719-67.6875 17.949219-17.949219 42.300781-28.027344 67.6875-28.011719zm0 0" fill="#ffbc00" data-original="#f8ec7d" style="" class=""/>
    <path xmlns="http://www.w3.org/2000/svg" d="m159.550781 235.199219h-.199219c-88 .199219-159.3007808 70.5-159.101562 166.101562l159.300781-.300781zm0 0" fill="#a91b68" data-original="#d18162" style="" class=""/>
    <path xmlns="http://www.w3.org/2000/svg" d="m159.550781 0c-52.855469 0-95.699219 42.847656-95.699219 95.699219 0 52.855469 42.84375 95.699219 95.699219 95.699219zm0 0" fill="#cd9700" data-original="#e2d574" style="" class=""/>
    <path xmlns="http://www.w3.org/2000/svg" d="m270.550781 283.800781c-8.675781-1.332031-15.300781-8.453125-16-17.199219v-1.300781c-.007812-4.988281 1.972657-9.773437 5.5-13.300781 3.527344-3.527344 8.3125-5.503906 13.300781-5.5h142.597657c4.980469 0 9.75 1.980469 13.261719 5.511719 3.511718 3.527343 5.46875 8.3125 5.441406 13.289062.027344 4.960938-1.957032 9.726563-5.5 13.199219-2.835938 2.859375-6.519532 4.71875-10.5 5.300781-.898438.117188-1.800782.183594-2.703125.199219h-142.597657c-.9375-.011719-1.871093-.078125-2.800781-.199219zm0 0" fill="#ffbc00" data-original="#f8ec7d" style="" class=""/>
    <path xmlns="http://www.w3.org/2000/svg" d="m373.550781 209.101562c1.699219-.007812 3.328125.664063 4.53125 1.867188s1.875 2.832031 1.867188 4.53125v31h-70.796875v-30.898438c-.007813-1.699218.664062-3.332031 1.867187-4.53125 1.199219-1.203124 2.832031-1.875 4.53125-1.871093h58zm0 0" fill="#4d004f" data-original="#63316d" style="" class=""/>
    <path xmlns="http://www.w3.org/2000/svg" d="m270.550781 283.800781c.894531.117188 1.796875.183594 2.699219.199219h142.5c.902344-.011719 1.804688-.078125 2.699219-.199219v130.398438c.011719 5.652343-2.226563 11.078125-6.222657 15.074219-4 4-9.421874 6.238281-15.074218 6.226562h-105.300782c-11.761718-.007812-21.292968-9.539062-21.300781-21.300781zm0 0" fill="#4d004f" data-original="#63316d" style="" class=""/>
    <g xmlns="http://www.w3.org/2000/svg" fill="#f8ec7d">
      <path d="m344.550781 410.5c-5.515625-.015625-9.984375-4.484375-10-10v-45.101562c0-5.519532 4.476563-10 10-10 5.523438 0 10 4.480468 10 10v45.101562c-.015625 5.515625-4.484375 9.984375-10 10zm0 0" fill="#ffbc00" data-original="#f8ec7d" style="" class=""/>
      <path d="m378.75 410.5c-5.515625-.015625-9.984375-4.484375-10-10v-45.101562c0-5.519532 4.476562-10 10-10s10 4.480468 10 10v45.101562c-.015625 5.515625-4.484375 9.984375-10 10zm0 0" fill="#ffbc00" data-original="#f8ec7d" style="" class=""/>
      <path d="m310.449219 410.5c-5.515625-.015625-9.984375-4.484375-10-10v-45.101562c0-5.519532 4.476562-10 10-10 5.523437 0 10 4.480468 10 10v45.101562c-.015625 5.515625-4.484375 9.984375-10 10zm0 0" fill="#ffbc00" data-original="#f8ec7d" style="" class=""/>
    </g>
  </g>
</svg>
