<?xml version="1.0" encoding="UTF-8"?>
<svg xmlns="http://www.w3.org/2000/svg" xmlns:xlink="http://www.w3.org/1999/xlink" xmlns:svgjs="http://svgjs.com/svgjs" version="1.1" width="512" height="512" x="0" y="0" viewBox="0 0 453.46143 453" style="enable-background:new 0 0 512 512" xml:space="preserve" class="">
  <g>
    <path xmlns="http://www.w3.org/2000/svg" d="m306 329.128906-32.800781 32.800782-11.199219 33.699218-.601562-.199218h-261.398438c.015625-75.175782 52.355469-140.207032 125.789062-156.292969 73.4375-16.085938 148.167969 21.109375 179.609376 89.394531zm0 0" fill="#e7218d" data-original="#e48e66" style="" class=""/>
    <path xmlns="http://www.w3.org/2000/svg" d="m160 .230469c52.855469 0 95.699219 42.847656 95.699219 95.699219 0 52.855468-42.84375 95.699218-95.699219 95.699218s-95.699219-42.84375-95.699219-95.699218c0-52.851563 42.84375-95.699219 95.699219-95.699219zm0 0" fill="#ffbc00" data-original="#f8ec7d" style="" class=""/>
    <path xmlns="http://www.w3.org/2000/svg" d="m160 235.429688h-.199219c-88 .199218-159.300781 64.5-159.101562 160.101562l159.300781-.300781zm0 0" fill="#a91c69" data-original="#d18162" style="" class=""/>
    <path xmlns="http://www.w3.org/2000/svg" d="m160 .230469c-52.855469 0-95.699219 42.847656-95.699219 95.699219 0 52.855468 42.84375 95.699218 95.699219 95.699218zm0 0" fill="#cd9701" data-original="#e2d574" style="" class=""/>
    <path xmlns="http://www.w3.org/2000/svg" d="m379.925781 255.285156 26.097657-26.085937 47.4375 47.453125-26.09375 26.085937zm0 0" fill="#4d004f" data-original="#63316d" style="" class=""/>
    <path xmlns="http://www.w3.org/2000/svg" d="m379.898438 255.230469 47.402343 47.398437-106.699219 106.703125-47.402343-47.402343zm0 0" fill="#ffbc00" data-original="#f8ec7d" style="" class=""/>
    <path xmlns="http://www.w3.org/2000/svg" d="m320.601562 409.332031-71.101562 23.699219 12.5-37.402344 11.199219-33.699218zm0 0" fill="#4d004f" data-original="#63316d" style="" class=""/>
  </g>
</svg>
