<?xml version="1.0" encoding="UTF-8"?>
<svg xmlns="http://www.w3.org/2000/svg" xmlns:xlink="http://www.w3.org/1999/xlink" xmlns:svgjs="http://svgjs.com/svgjs" version="1.1" width="512" height="512" x="0" y="0" viewBox="0 0 410 410" style="enable-background:new 0 0 512 512" xml:space="preserve" class="">
  <g>
    <path xmlns="http://www.w3.org/2000/svg" d="m410 205c0 113.21875-91.78125 205-205 205s-205-91.78125-205-205 91.78125-205 205-205 205 91.78125 205 205zm0 0" fill="#4d004f" data-original="#e48e66" style="" class=""/>
    <path xmlns="http://www.w3.org/2000/svg" d="m0 205c0 113.199219 91.800781 205 205 205v-410c-113.199219 0-205 91.800781-205 205zm0 0" fill="#3c003e" data-original="#d18162" style="" class=""/>
    <path xmlns="http://www.w3.org/2000/svg" d="m218.898438 204.699219 67.703124-67.699219c3.890626-3.894531 3.890626-10.207031 0-14.101562-3.894531-3.890626-10.207031-3.890626-14.101562 0l-67.699219 67.703124-71.199219-71.203124c-3.894531-3.890626-10.207031-3.890626-14.101562 0-3.894531 3.894531-3.894531 10.207031 0 14.101562l71.199219 71.199219-71.300781 71.300781c-1.871094 1.867188-2.921876 4.40625-2.921876 7.050781s1.050782 5.179688 2.921876 7.050781c1.878906 1.886719 4.441406 2.933594 7.101562 2.898438 2.652344-.011719 5.199219-1.050781 7.101562-2.898438l71.199219-71.203124 67.699219 67.703124c1.875 1.886719 4.4375 2.933594 7.101562 2.898438 2.652344-.011719 5.195313-1.050781 7.097657-2.898438 1.875-1.871093 2.925781-4.40625 2.925781-7.050781s-1.050781-5.183593-2.925781-7.050781zm0 0" fill="#ffbc00" data-original="#f8ec7d" style="" class=""/>
  </g>
</svg>
