<?xml version="1.0" encoding="UTF-8"?>
<svg xmlns="http://www.w3.org/2000/svg" xmlns:xlink="http://www.w3.org/1999/xlink" xmlns:svgjs="http://svgjs.com/svgjs" version="1.1" width="512" height="512" x="0" y="0" viewBox="0 0 454.29886 454" style="enable-background:new 0 0 512 512" xml:space="preserve" class="">
  <g>
    <path xmlns="http://www.w3.org/2000/svg" d="m267 400.949219-267 .601562c-.199219-95.703125 71.101562-166 159.199219-166.101562 40.800781-.101563 78.101562 14.898437 106.300781 40.601562-28.820312 36.84375-28.195312 88.757813 1.5 124.898438zm0 0" fill="#e7218d" data-original="#e48e66" style="" class=""/>
    <path xmlns="http://www.w3.org/2000/svg" d="m159.300781.148438c52.851563 0 95.699219 42.847656 95.699219 95.699218 0 52.855469-42.847656 95.703125-95.699219 95.703125-52.855469 0-95.699219-42.847656-95.699219-95.703125 0-52.851562 42.84375-95.699218 95.699219-95.699218zm0 0" fill="#ffbc00" data-original="#f8ec7d" style="" class=""/>
    <path xmlns="http://www.w3.org/2000/svg" d="m159.300781 235.347656h-.199219c-88 .203125-159.300781 70.5-159.101562 166.101563l159.300781-.300781zm0 0" fill="#a91c69" data-original="#d18162" style="" class=""/>
    <path xmlns="http://www.w3.org/2000/svg" d="m159.300781.148438c-52.855469 0-95.699219 42.847656-95.699219 95.699218 0 52.855469 42.84375 95.703125 95.699219 95.703125zm0 0" fill="#cd9701" data-original="#e2d574" style="" class=""/>
    <path xmlns="http://www.w3.org/2000/svg" d="m344.300781 227.449219c-33.839843-.078125-65.808593 15.5-86.601562 42.199219l-.097657.101562c-15.15625 19.304688-23.367187 43.15625-23.300781 67.699219.027344 25.453125 8.859375 50.117187 25 69.800781 1.601563 1.898438 3.300781 3.800781 5 5.699219 34.441407 36.496093 89.21875 45.054687 133.152344 20.804687 43.933594-24.246094 65.886719-75.152344 53.367187-123.746094-12.519531-48.597656-56.339843-82.558593-106.519531-82.558593zm0 0" fill="#4d004f" data-original="#63316d" style="" class=""/>
    <path xmlns="http://www.w3.org/2000/svg" d="m328.402344 370.148438c-2.921875-.007813-5.695313-1.285157-7.601563-3.5l-24-28.097657c-3.589843-4.199219-3.097656-10.511719 1.101563-14.101562 4.195312-3.589844 10.507812-3.097657 14.097656 1.101562l17.699219 20.699219 48.300781-39.300781c4.28125-3.507813 10.59375-2.878907 14.101562 1.398437 3.507813 4.28125 2.878907 10.59375-1.402343 14.101563l-55.898438 45.5c-1.835937 1.414062-4.082031 2.1875-6.398437 2.199219zm0 0" fill="#ffbc00" data-original="#f8ec7d" style="" class=""/>
  </g>
</svg>
